<svg xmlns="http://www.w3.org/2000/svg" aria-hidden="true" style="position:absolute;width:0;height:0;overflow:hidden">
  <defs>
    <!-- Features-icon -->
    <symbol id="icon-antenna" viewBox="0 0 32 32">
      <path fill="#2e2f42" d="m30.773 22.098-8.443-8.505.937-4.615c.242.094.499.144.758.146h.006a2.159 2.159 0 1 0-2.008-1.435l-4.96.605L8.972.161a.53.53 0 0 0-.377-.16.53.53 0 0 0-.373.155L6.709 1.66a.534.534 0 0 0 0 .754l.814.826a14.94 14.94 0 0 0 2.519 17.663.5.5 0 0 0 .146.098q-.05.271-.052.547v6.187h-6.4a2.67 2.67 0 0 0-2.667 2.667v1.067c0 .295.239.533.533.533h24.533a.533.533 0 0 0 .533-.533v-1.067a2.67 2.67 0 0 0-2.667-2.667h-6.4v-2.742a15 15 0 0 0 3.049.32 14.85 14.85 0 0 0 7.04-1.783l.818.823a.53.53 0 0 0 .377.16.53.53 0 0 0 .373-.155l1.513-1.504a.534.534 0 0 0 0-.754zM23.28 6.233a1.067 1.067 0 1 1 .753 1.822h-.003a1.067 1.067 0 0 1-.747-1.823h-.002zm-1.256 3.505-.598 2.946-1.175-1.182 1.774-1.763zm-.605-.902-1.92 1.909-1.485-1.493 3.405-.415zM24.004 28.8a1.6 1.6 0 0 1 1.6 1.6v.533H2.137V30.4a1.6 1.6 0 0 1 1.6-1.6zm-7.467-2.133v1.067h-5.333v-1.067zM11.204 25.6v-4.053c0-1.294 1.196-2.347 2.667-2.347s2.667 1.053 2.667 2.347V25.6zm6.4-1.696v-2.357c0-1.882-1.675-3.413-3.733-3.413a3.8 3.8 0 0 0-3.281 1.786A13.87 13.87 0 0 1 8.311 4.033l18.602 18.708a13.82 13.82 0 0 1-9.309 1.163m11.289-.684L7.836 2.039l.755-.752 7.935 7.98c.004 0 .006.007.01.01l13.115 13.191-.757.752z" style="fill:var(--color1, #2e2f42)"/>
      <path fill="#4d5ae5" d="M13.876 20.267h-.005a1.6 1.6 0 1 0-.004 3.2h.005a1.6 1.6 0 1 0 .004-3.2m.373 1.978a.534.534 0 0 1-.752-.756.53.53 0 0 1 .373-.155.534.534 0 0 1 .374.911z" style="fill:var(--color2, #4d5ae5)"/>
    </symbol>
    <symbol id="icon-clock" viewBox="0 0 32 32">
      <path fill="#2e2f42" d="M31.297 15.301C31.295 6.849 24.442-.002 15.989 0S.686 6.855.688 15.308a15.3 15.3 0 0 0 10.649 14.576.662.662 0 0 0 .529-.065.64.64 0 0 0 .283-.356l3.865-12.25a1.912 1.912 0 1 0-.84-3.635l-5.106-5.107a.637.637 0 0 0-.902.902l5.103 5.109a1.876 1.876 0 0 0 .536 2.309l-3.683 11.673C3.844 25.783.118 17.71 2.799 10.432S13.553-.572 20.831 2.109s11.004 10.754 8.323 18.032a14.04 14.04 0 0 1-7.462 7.973l-.398-1.874a.637.637 0 0 0-1.049-.344l-3.837 3.426a.637.637 0 0 0 .231 1.084l4.899 1.564a.638.638 0 0 0 .819-.74l-.391-1.839a15.255 15.255 0 0 0 9.329-14.089zm-15.305-.637a.638.638 0 1 1 0 1.277.638.638 0 0 1 0-1.277m2.101 14.864 2.184-1.948.603 2.84z" style="fill:var(--color1, #2e2f42)"/>
      <path fill="#4d5ae5" d="M15.354 3.185V4.46a.638.638 0 1 0 1.276 0V3.185a.638.638 0 0 0-1.276 0M3.876 14.664a.638.638 0 0 0 0 1.276h1.275a.638.638 0 1 0 0-1.276zM28.108 15.939a.638.638 0 1 0 0-1.276h-1.275a.638.638 0 0 0 0 1.276z" style="fill:var(--color2, #4d5ae5)"/>
    </symbol>
    <symbol id="icon-diagram" viewBox="0 0 32 32">
      <path fill="#4d5ae5" d="M14.926 14.965h1.066v4.798h-1.066zM19.19 17.097h1.066v2.665H19.19zM10.661 18.696h1.066v1.066h-1.066zM7.463 18.163h1.066v1.599H7.463z" style="fill:var(--color2, #4d5ae5)"/>
      <path fill="#2e2f42" d="M1.599 28.291h25.587a1.6 1.6 0 0 0 1.599-1.599V24.56a1.6 1.6 0 0 0-1.599-1.599h-.533V9.668L29.681 6.8a1.608 1.608 0 1 0-.746-.763L26.654 8.2V6.97a1.6 1.6 0 0 0-1.599-1.599H3.733A1.6 1.6 0 0 0 2.134 6.97v15.992h-.533a1.6 1.6 0 0 0-1.599 1.599v2.132a1.6 1.6 0 0 0 1.599 1.599zM30.384 4.837a.533.533 0 1 1 0 1.067.533.533 0 0 1 0-1.067M3.198 6.969c0-.294.239-.533.533-.533h21.322c.294 0 .533.239.533.533v2.239l-1.066 1.013V8.035a.533.533 0 0 0-.533-.533H4.797a.533.533 0 0 0-.533.533v13.326c0 .294.239.533.533.533h19.19a.533.533 0 0 0 .533-.533v-9.674l1.066-1.01v12.284H3.198zm4.798 6.93a1.598 1.598 0 1 0 1.107 2.749l1.853.93a.53.53 0 0 0 .636-.123l3.939-4.431 3.872 2.901a.53.53 0 0 0 .686-.039l3.365-3.188v8.131H5.33V8.569h18.124v2.66l-3.771 3.572-3.904-2.927a.533.533 0 0 0-.718.072l-3.993 4.493-1.493-.746q.017-.096.02-.193a1.6 1.6 0 0 0-1.599-1.599zm.533 1.599a.533.533 0 1 1-1.067 0 .533.533 0 0 1 1.067 0m3.198 8.529h5.331v.533a.533.533 0 0 1-.533.533h-4.264a.533.533 0 0 1-.533-.533zm-10.661.533c0-.294.239-.533.533-.533h9.062v.533a1.6 1.6 0 0 0 1.599 1.599h4.264a1.6 1.6 0 0 0 1.599-1.599v-.533h9.062c.294 0 .533.239.533.533v2.132a.533.533 0 0 1-.533.533H1.598a.533.533 0 0 1-.533-.533z" style="fill:var(--color1, #2e2f42)"/>
    </symbol>
    <symbol id="icon-astronaut" viewBox="0 0 32 32">
      <path fill="#4d5ae5" d="M31.974 4.524a.53.53 0 0 0-.43-.363l-1.91-.278-.855-1.731c-.179-.365-.777-.365-.956 0l-.855 1.731-1.91.278a.535.535 0 0 0-.296.91l1.383 1.348-.326 1.903c-.034.2.048.402.212.522a.53.53 0 0 0 .562.04l1.709-.899 1.709.899a.536.536 0 0 0 .775-.563l-.326-1.903 1.383-1.348a.54.54 0 0 0 .135-.547zm-2.463 1.327a.53.53 0 0 0-.153.472l.191 1.114-1-.526a.53.53 0 0 0-.498 0l-1.001.526.191-1.114a.53.53 0 0 0-.153-.472l-.81-.789 1.119-.163a.53.53 0 0 0 .402-.292l.5-1.013.5 1.013a.54.54 0 0 0 .402.292l1.119.163zM26.134 20.522h-1.067v1.067h1.067zM26.134 22.656h-1.067v1.067h1.067zM27.2 21.589h-1.067v1.067H27.2zM25.067 21.589H24v1.067h1.067zM22.4 26.389h-1.067v1.067H22.4zM22.4 28.522h-1.067v1.067H22.4zM23.467 27.456H22.4v1.067h1.067zM21.333 27.456h-1.067v1.067h1.067zM16 24.256h-1.067v1.067H16zM16 26.389h-1.067v1.067H16zM17.067 25.322H16v1.067h1.067zM14.933 25.322h-1.067v1.067h1.067zM5.867 6.122H4.8v1.067h1.067zM5.867 8.255H4.8v1.067h1.067z" style="fill:var(--color2, #4d5ae5)"/>
      <path fill="#4d5ae5" d="M6.933 7.189H5.866v1.067h1.067zM4.8 7.189H3.733v1.067H4.8z" style="fill:var(--color2, #4d5ae5)"/>
      <path fill="#2e2f42" d="M24.715 14.159a1.78 1.78 0 0 0-1.188-.705 1.78 1.78 0 0 0-1.34.352l-1.252.96-1.898 1.417-1.358-.541c2.421-1.086 4.114-3.508 4.114-6.32 0-3.823-3.123-6.933-6.961-6.933s-6.961 3.11-6.961 6.933a6.86 6.86 0 0 0 1.12 3.758l-2.764-.024h-.005q-.012.002-.023.005a.5.5 0 0 0-.155.031l-.038.013q-.01.003-.019.006l-3.233 1.596-.001.001-1.893.911a.4.4 0 0 0-.063.035 1.78 1.78 0 0 0-.598 2.295c.22.429.595.745 1.056.889q.268.083.539.083c.29 0 .577-.071.839-.211l1.388-.738 2.264-1.169 1.357-.008L2.2 22.211l-.002.001-1.339 1.333c-.316.315-.49.732-.49 1.178s.174.863.49 1.179c.325.323.752.485 1.179.485s.854-.162 1.18-.485l1.314-1.309 1.741-1.3.901.897-1.762 1.754-.002.001-1.339 1.333c-.316.315-.49.732-.49 1.178s.174.863.49 1.179c.325.323.753.485 1.18.485s.855-.162 1.18-.485l3.482-3.467.001-.002 1.01-1-.004-.004q.01-.008.022-.015l5.166-5.658 3.471.494q.037.006.075.005a.5.5 0 0 0 .187-.038q.026-.01.05-.023c.019-.01.039-.015.058-.027l3.213-2.133c.012-.008.018-.021.029-.029.013-.01.029-.014.041-.026l1.271-1.191c.662-.62.753-1.635.212-2.362M2.13 17.77a.71.71 0 0 1-.558.052.717.717 0 0 1-.213-1.26l1.314-.632.449 1.313zm3.498-1.828-1.548.8-.439-1.283 2.027-1.001zm15.099-6.62a5.8 5.8 0 0 1-.599 2.559l-4.181-1.899a1.86 1.86 0 0 0-.788-1.388l1.464-4.86c2.378.756 4.105 2.974 4.105 5.588zm-11.789 0c0-3.235 2.644-5.867 5.894-5.867.253 0 .5.021.745.052l-1.432 4.754c-.019-.001-.037-.006-.057-.006-1.033 0-1.873.837-1.873 1.867s.84 1.867 1.873 1.867c.694 0 1.294-.383 1.618-.945l3.862 1.755a5.9 5.9 0 0 1-4.737 2.39c-3.25 0-5.894-2.632-5.894-5.867zm5.956.8c0 .441-.362.8-.806.8s-.806-.359-.806-.8.362-.8.806-.8.806.359.806.8M2.465 25.146a.61.61 0 0 1-.854.001.59.59 0 0 1 0-.844l.962-.958.851.848-.959.955zm3.214 3.734a.61.61 0 0 1-.855.001.59.59 0 0 1 0-.844l.963-.959.852.848-.96.955zm3.481-3.469-.002.001-1.765 1.76-.852-.848 1.763-1.755.002-.001c.04-.04.065-.088.09-.135.007-.014.02-.026.026-.04.017-.041.019-.085.026-.129.003-.025.014-.047.014-.073 0-.036-.013-.07-.02-.106-.006-.032-.006-.065-.019-.095a.6.6 0 0 0-.091-.138c-.01-.012-.014-.027-.025-.038h-.001l-.001-.002-1.607-1.6c-.017-.017-.039-.024-.058-.038a.5.5 0 0 0-.087-.058.5.5 0 0 0-.093-.033.5.5 0 0 0-.103-.02.5.5 0 0 0-.095.005.5.5 0 0 0-.104.02.5.5 0 0 0-.094.045c-.02.011-.042.015-.061.029L4.23 23.486l-.901-.897 2.399-2.386 4.361 4.289zm6.819-7.017c-.015-.002-.03.004-.045.003a.56.56 0 0 0-.3.075.5.5 0 0 0-.083.061c-.013.011-.028.017-.04.029l-4.698 5.146-4.328-4.257 2.833-2.818a.534.534 0 0 0-.379-.911v-.001l-2.219.013.028-1.607 3.104.027a6.95 6.95 0 0 0 4.981 2.101c.437 0 .864-.045 1.279-.123.04.032.079.065.13.085l2.41.96.152.758.178.885zm4.041.178-.313-1.558 1.446-1.08.947 1.257zm3.754-2.831-.838.785-.931-1.236.831-.637a.74.74 0 0 1 .543-.143.72.72 0 0 1 .48.284.713.713 0 0 1-.085.947" style="fill:var(--color1, #2e2f42)"/>
      <path fill="#2e2f42" d="m13.602 18.544-2.143-2.133a.534.534 0 0 0-.753 0l-2.142 2.133a.537.537 0 0 0 0 .756l2.142 2.133a.536.536 0 0 0 .753 0l2.143-2.133a.535.535 0 0 0 0-.756m-2.519 1.759-1.387-1.381 1.387-1.381 1.387 1.381zM17.164 5.071l-.258 1.036c.071.018 1.738.452 1.738 2.149h1.067c0-2.017-1.666-2.965-2.547-3.185M19.711 9.322h-1.067v1.067h1.067z" style="fill:var(--color1, #2e2f42)"/>
    </symbol>
    <!-- Socials-icon -->
    <symbol id="icon-instagram" viewBox="0 0 32 32">
      <path d="M31.969 9.408c-.075-1.7-.35-2.869-.744-3.882a7.8 7.8 0 0 0-1.85-2.838A7.9 7.9 0 0 0 26.543.844C25.524.45 24.361.175 22.661.1 20.948.019 20.404 0 16.06 0s-4.888.019-6.595.094c-1.7.075-2.869.35-3.882.744a7.8 7.8 0 0 0-2.838 1.85A7.9 7.9 0 0 0 .901 5.52C.507 6.539.232 7.702.157 9.402c-.081 1.713-.1 2.257-.1 6.601s.019 4.888.094 6.595c.075 1.7.35 2.869.744 3.882a7.9 7.9 0 0 0 1.85 2.838 7.9 7.9 0 0 0 2.832 1.844c1.019.394 2.182.669 3.882.744 1.706.075 2.25.094 6.595.094s4.888-.019 6.595-.094c1.7-.075 2.869-.35 3.882-.744a8.18 8.18 0 0 0 4.682-4.682c.394-1.019.669-2.182.744-3.882.075-1.707.094-2.25.094-6.595s-.006-4.888-.081-6.595zm-2.882 13.065c-.069 1.563-.331 2.407-.55 2.969a5.3 5.3 0 0 1-3.038 3.038c-.563.219-1.413.481-2.969.55-1.688.075-2.194.094-6.464.094s-4.782-.019-6.464-.094c-1.563-.069-2.407-.331-2.969-.55a4.9 4.9 0 0 1-1.838-1.194 5 5 0 0 1-1.194-1.838c-.219-.563-.481-1.413-.55-2.969-.075-1.688-.094-2.194-.094-6.464s.019-4.782.094-6.464c.069-1.563.331-2.407.55-2.969a4.9 4.9 0 0 1 1.2-1.838A5 5 0 0 1 6.639 3.55c.563-.219 1.413-.481 2.969-.55 1.688-.075 2.194-.094 6.464-.094 4.276 0 4.782.019 6.464.094 1.563.069 2.407.331 2.969.55a4.9 4.9 0 0 1 1.838 1.194 5 5 0 0 1 1.194 1.838c.219.563.481 1.413.55 2.969.075 1.688.094 2.194.094 6.464s-.019 4.77-.094 6.458"/>
      <path d="M16.059 7.783c-4.538 0-8.22 3.682-8.22 8.22s3.682 8.22 8.22 8.22 8.22-3.682 8.22-8.22-3.682-8.22-8.22-8.22m0 13.552a5.333 5.333 0 0 1 0-10.664 5.333 5.333 0 0 1 0 10.664M26.524 7.458a1.919 1.919 0 1 1-3.838 0 1.919 1.919 0 0 1 3.838 0"/>
    </symbol>
    <symbol id="icon-twitter" viewBox="0 0 32 32">
      <path d="M32 6.078c-1.19.522-2.458.868-3.78 1.036a6.52 6.52 0 0 0 2.886-3.626 13.1 13.1 0 0 1-4.16 1.588A6.57 6.57 0 0 0 22.154 3c-3.632 0-6.556 2.948-6.556 6.562 0 .52.044 1.02.152 1.496-5.454-.266-10.28-2.88-13.522-6.862a6.6 6.6 0 0 0-.898 3.316 6.57 6.57 0 0 0 2.914 5.452 6.5 6.5 0 0 1-2.964-.808v.072c0 3.188 2.274 5.836 5.256 6.446a6.6 6.6 0 0 1-1.72.216 5.8 5.8 0 0 1-1.242-.112c.85 2.598 3.262 4.508 6.13 4.57a13.18 13.18 0 0 1-8.134 2.798c-.538 0-1.054-.024-1.57-.09A18.47 18.47 0 0 0 10.064 29c12.072 0 18.672-10 18.672-18.668q-.002-.433-.024-.848A13.1 13.1 0 0 0 32 6.078"/>
    </symbol>
    <symbol id="icon-facebook" viewBox="0 0 32 32">
      <path d="M21.329 5.313h2.921V.225C23.746.156 22.013 0 19.994 0c-4.212 0-7.097 2.649-7.097 7.519V12H8.249v5.688h4.648V32h5.699V17.689h4.46l.708-5.688h-5.169V8.082c.001-1.644.444-2.769 2.735-2.769z"/>
    </symbol>
    <symbol id="icon-linkedin" viewBox="0 0 32 32">
      <path d="M31.992 32v-.001H32V20.263c0-5.741-1.236-10.164-7.948-10.164-3.227 0-5.392 1.771-6.276 3.449h-.093v-2.913h-6.364v21.364h6.627V21.42c0-2.785.528-5.479 3.977-5.479 3.399 0 3.449 3.179 3.449 5.657v10.401h6.62zM.528 10.636h6.635V32H.528zM3.843 0C1.722 0 0 1.721 0 3.843s1.721 3.879 3.843 3.879 3.843-1.757 3.843-3.879A3.846 3.846 0 0 0 3.843 0"/>
    </symbol>
    <!-- Customers-icon -->
    <symbol id="icon-client-1" viewBox="0 0 59 32">
      <path d="m21.714 4 4.004 3.815-7.433-.004v18.51h19.429v-7.077l4 3.811V4.001h-20zm15.824 14.796L26.184 7.979h11.354zm-3.525 4.817H21.36V11.164h.894V22.77h11.759zm-10.13 6.136-.472-.97h-.389l.684 1.284v.748h.353v-.748l.684-1.284h-.388zm1.739-.969h.084l.767 2.031h-.368l-.164-.476h-.786l-.164.476h-.367l.765-2.031zm-.373 1.278h.595l-.298-.862zm2.455-.337-.044-.057q-.079-.103-.121-.2a.4.4 0 0 1-.043-.201q0-.159.066-.273a.36.36 0 0 1 .186-.176.6.6 0 0 1 .28-.063q.155 0 .266.063a.44.44 0 0 1 .103.707 1 1 0 0 1-.142.124l-.141.103.402.475a.826.826 0 0 0 .088-.379h.29q0 .148-.029.28a.7.7 0 0 1-.091.245 1 1 0 0 1-.058.09l.298.351h-.389l-.118-.139a.8.8 0 0 1-.208.114 1 1 0 0 1-.315.053q-.203 0-.35-.074c-.147-.074-.175-.117-.229-.204a.56.56 0 0 1-.08-.297q0-.124.052-.218a.54.54 0 0 1 .141-.176q.083-.075.188-.15zm.167.204-.042.031q-.074.06-.11.116c-.036.056-.039.07-.046.1a.352.352 0 0 0 .027.243.3.3 0 0 0 .113.116.4.4 0 0 0 .183.042.5.5 0 0 0 .328-.116l-.452-.532zm.08-.371.125-.084q.088-.059.126-.114c.038-.055.038-.086.038-.142q0-.072-.056-.134c-.056-.062-.09-.061-.158-.061a.2.2 0 0 0-.194.121.3.3 0 0 0-.024.119q0 .063.032.13c.032.067.051.09.088.138l.023.029zm3.554.596h-.349q-.016.132-.064.225c-.048.093-.079.106-.141.138a.5.5 0 0 1-.241.047q-.123 0-.211-.049c-.088-.049-.107-.079-.145-.138q-.055-.09-.084-.213c-.029-.123-.026-.177-.026-.279v-.172q0-.162.029-.287c.029-.125.051-.156.091-.213q.06-.087.149-.131a.4.4 0 0 1 .209-.045q.147 0 .237.05c.09.05.106.08.137.142a.6.6 0 0 1 .061.225h.349q-.021-.204-.114-.361a.53.53 0 0 0-.259-.247.86.86 0 0 0-.41-.089q-.19 0-.345.067c-.155.067-.188.109-.261.194q-.109.126-.167.303c-.058.177-.057.25-.057.396v.169q0 .219.056.396c.056.177.093.219.165.303q.108.124.258.192c.15.068.213.067.339.067q.246 0 .417-.089a.53.53 0 0 0 .266-.244.8.8 0 0 0 .112-.356zm1.938-.299v-.112q0-.23-.061-.412a.7.7 0 0 0-.172-.311q-.111-.13-.266-.197a.7.7 0 0 0-.343-.068q-.187 0-.342.068c-.155.068-.191.11-.266.197q-.111.128-.173.311c-.062.183-.061.258-.061.412v.112q0 .23.061.413c.061.183.1.226.176.311a.77.77 0 0 0 .608.264q.189 0 .343-.067a.57.57 0 0 0 .265-.197q.111-.128.172-.311c.061-.183.06-.259.06-.413zm-.351-.114v.114q0 .17-.033.301a.5.5 0 0 1-.095.222q-.063.09-.153.135c-.09.045-.13.045-.208.045q-.116 0-.206-.045a.35.35 0 0 1-.156-.135q-.064-.09-.098-.222c-.034-.132-.033-.188-.033-.301v-.114q0-.17.033-.3a.5.5 0 0 1 .251-.353q.091-.046.206-.046a.36.36 0 0 1 .208.046q.092.044.155.134c.063.09.075.132.096.219q.033.13.033.3"/>
    </symbol>
    <symbol id="icon-client-2" viewBox="0 0 59 32">
      <path d="M28.636 3.391h-.078q-.18-.01-.36-.013h-.26q-.342 0-.688.017h-.052a16.2 16.2 0 0 0-6.009 1.533l-.247.119v12.652l.578-.196a23 23 0 0 1 1.607-.477 19.6 19.6 0 0 1 4.626-.615v1.662q-.309.003-.609.017h-.048a18.5 18.5 0 0 0-3.559.546c-1.477.37-2.901.925-4.24 1.652V4.061a17 17 0 0 1 4.448-1.809 17 17 0 0 1 4.192-.541h.244c.292.007.577.02.844.041q1.06.074 2.089.333v1.636a13 13 0 0 0-2.024-.305l-.041-.004c-.141-.012-.282-.024-.414-.024zm2.88 1.673c.363.028.739.041 1.119.041a18 18 0 0 0 4.407-.565 18.1 18.1 0 0 0 4.238-1.654v15.938a17 17 0 0 1-4.449 1.809c-1.37.352-2.778.533-4.192.539a12.8 12.8 0 0 1-3.18-.375V4.756q.37.086.756.153c.422.071.867.123 1.301.155m8.111.123-.578.195q-.798.268-1.608.481a19.6 19.6 0 0 1-4.804.616c-.377 0-.724-.01-1.06-.032l-.461-.03v13.015l.396.035c.367.032.746.048 1.128.048a15.3 15.3 0 0 0 3.783-.49 16 16 0 0 0 2.956-1.062l.247-.119V5.188zM20.421 25.836a.86.86 0 0 0-.643-.26 1 1 0 0 0-.372.07.828.828 0 0 0-.475.481 1 1 0 0 0-.067.359v2.168a1 1 0 0 0 .085.445q.078.168.217.291a.75.75 0 0 0 .298.154q.158.045.324.045a.906.906 0 0 0 .828-.568.9.9 0 0 0 .069-.346v-.243h-.567v.193a.5.5 0 0 1-.033.193.4.4 0 0 1-.082.122.3.3 0 0 1-.119.062.4.4 0 0 1-.119.02q-.078.008-.149-.022c-.071-.03-.087-.053-.117-.094a.5.5 0 0 1-.075-.291v-2.021a.7.7 0 0 1 .069-.324.28.28 0 0 1 .277-.13q.074-.003.141.03c.067.033.082.053.112.092a.46.46 0 0 1 .094.291v.187h.561v-.221a1 1 0 0 0-.069-.379.9.9 0 0 0-.189-.305zM23.788 25.811a1 1 0 0 0-.645-.238.98.98 0 0 0-.637.238.9.9 0 0 0-.22.304 1 1 0 0 0-.082.42v2.079c-.004.146.024.292.082.426a.8.8 0 0 0 .22.291q.131.121.299.183a.98.98 0 0 0 .982-.183.9.9 0 0 0 .296-.717v-2.079a1 1 0 0 0-.082-.42.9.9 0 0 0-.214-.304zm-.265 2.803a.38.38 0 0 1-.112.301.414.414 0 0 1-.534 0q-.06-.058-.09-.138c-.03-.08-.027-.108-.022-.163v-2.079a.38.38 0 0 1 .112-.301.414.414 0 0 1 .534 0q.06.058.09.138c.03.08.027.108.022.163zM28.21 29.543v-3.936h-.545l-.716 2.084h-.01l-.721-2.084h-.539v3.936h.562v-2.395h.01l.551 1.693h.28l.555-1.693h.01v2.395h.562zM31.405 25.882a.8.8 0 0 0-.318-.215 1.3 1.3 0 0 0-.408-.061h-.835v3.936h.561v-1.537h.289c.175.008.349-.029.506-.108a.8.8 0 0 0 .308-.301.9.9 0 0 0 .129-.343q.033-.223.03-.448a2.2 2.2 0 0 0-.055-.562.8.8 0 0 0-.207-.362zm-.289 1.2a.5.5 0 0 1-.052.205.3.3 0 0 1-.145.138.6.6 0 0 1-.265.049h-.256v-1.338h.289a.55.55 0 0 1 .253.049.32.32 0 0 1 .132.145.6.6 0 0 1 .049.219v.262c0 .092.006.186 0 .27h-.006zM34.062 25.606h-.46l-.867 3.936h.561l.165-.846h.765l.165.846h.561zm-.518 2.555.276-1.427h.01l.275 1.427zM37.686 27.978h-.01l-.847-2.371h-.539v3.936h.561v-2.367h.012l.857 2.367h.528v-3.936h-.561zM41.113 25.606l-.451 1.565h-.012l-.451-1.565h-.594l.77 2.273v1.664h.561v-1.664l.77-2.273zM18.857 30.654h.27v.759h.184v-.759h.269v-.155h-.723zM21.13 30.498l-.354.914h.195l.075-.208h.364l.078.208h.2l-.363-.914zm-.029.553.124-.339.124.339H21.1zM23.376 31.076h.211v.118a.36.36 0 0 1-.217.077.23.23 0 0 1-.193-.087.4.4 0 0 1-.068-.238q0-.305.263-.305a.194.194 0 0 1 .207.145l.181-.035q-.059-.269-.387-.269a.46.46 0 0 0-.319.118q-.07.069-.104.161a.36.36 0 0 0-.027.19.5.5 0 0 0 .117.343.45.45 0 0 0 .347.134.55.55 0 0 0 .387-.145v-.36h-.396v.154zM25.67 30.498h-.185v.914h.64v-.155h-.455zM27.61 30.498h-.185v.914h.185zM29.507 31.109l-.374-.61h-.179v.914h.172v-.597l.367.597h.184v-.914h-.169v.61zM31.221 31.01h.455v-.155h-.455v-.201h.49v-.155h-.675v.914h.694v-.155h-.509zM35.378 30.859h-.36v-.36h-.184v.914h.184v-.4h.36v.4h.184v-.914h-.184zM37.103 31.01h.457v-.155h-.457v-.201h.492v-.155h-.675v.914h.692v-.155h-.509zM39.442 31.01q.24-.037.24-.254a.21.21 0 0 0-.09-.203.5.5 0 0 0-.267-.054h-.387v.914h.184v-.382h.036a.3.3 0 0 1 .114.02q.04.026.065.067l.2.291h.22l-.111-.179a.64.64 0 0 0-.202-.219zm-.185-.126h-.136v-.23h.145a.5.5 0 0 1 .187.022q.02.018.031.043c.011.025.01.034.009.052q-.002.027-.014.051c-.012.024-.02.029-.035.04a.5.5 0 0 1-.187.022M41.206 31.01h.455v-.155h-.455v-.201h.492v-.155h-.676v.914h.694v-.155h-.509z"/>
    </symbol>
    <symbol id="icon-client-3" viewBox="0 0 59 32">
      <path d="M21.034 28.128q.014 0 .027.005a.1.1 0 0 1 .022.014l.126.119a1 1 0 0 1-.355.225 1.4 1.4 0 0 1-.503.081 1.4 1.4 0 0 1-.473-.076 1 1 0 0 1-.357-.213.9.9 0 0 1-.23-.329 1.1 1.1 0 0 1-.08-.422 1 1 0 0 1 .087-.423 1 1 0 0 1 .244-.329 1.1 1.1 0 0 1 .379-.214c.155-.051.321-.077.487-.076.155-.003.309.02.453.069q.189.07.339.19l-.106.127a.1.1 0 0 1-.027.023.07.07 0 0 1-.043.009.1.1 0 0 1-.046-.014l-.057-.034-.079-.043a1 1 0 0 0-.25-.076 1.2 1.2 0 0 0-.538.043.73.73 0 0 0-.452.412.9.9 0 0 0-.065.334q-.003.174.065.34a.73.73 0 0 0 .437.408 1 1 0 0 0 .325.054q.097.001.192-.011a.8.8 0 0 0 .417-.174.1.1 0 0 1 .06-.022zM24.678 27.532q.002.216-.085.419-.078.185-.238.326a.9.9 0 0 1-.373.214c-.309.101-.65.101-.959 0a1.1 1.1 0 0 1-.371-.214 1 1 0 0 1-.24-.329 1.07 1.07 0 0 1 0-.84 1 1 0 0 1 .24-.33q.16-.136.371-.206c.308-.102.651-.102.959 0 .14.049.267.122.372.214a.96.96 0 0 1 .323.747zm-.331 0a.9.9 0 0 0-.06-.337.69.69 0 0 0-.436-.411 1.12 1.12 0 0 0-.697 0 .75.75 0 0 0-.267.159.7.7 0 0 0-.17.252.98.98 0 0 0 0 .674.7.7 0 0 0 .437.41c.225.072.472.072.697 0a.7.7 0 0 0 .436-.41.9.9 0 0 0 .06-.337M27.164 27.885l.033.076.036-.076a1 1 0 0 1 .041-.074l.806-1.252q.023-.033.046-.039a.2.2 0 0 1 .066-.007h.238v2.036h-.282v-1.56a.4.4 0 0 1 0-.07l-.811 1.269q-.016.029-.047.046a.1.1 0 0 1-.069.017h-.046q-.038 0-.069-.017c-.031-.017-.037-.027-.047-.047l-.834-1.277v1.635h-.273v-2.032h.238a.2.2 0 0 1 .066.007q.03.013.044.039l.823 1.253q.024.034.041.073M30.197 27.784v.763h-.316v-2.034h.704a1.6 1.6 0 0 1 .393.044.8.8 0 0 1 .278.127.5.5 0 0 1 .158.199.6.6 0 0 1 .054.26.56.56 0 0 1-.228.463.8.8 0 0 1-.279.135 1.4 1.4 0 0 1-.38.047l-.382-.005zm0-.218h.382a1 1 0 0 0 .244-.031.6.6 0 0 0 .177-.088.38.38 0 0 0 .145-.306q.006-.086-.032-.166a.3.3 0 0 0-.11-.139.7.7 0 0 0-.424-.109h-.382v.838zM34.437 28.549h-.249a.12.12 0 0 1-.11-.066l-.215-.492h-1.077l-.222.492a.12.12 0 0 1-.11.066h-.249l.946-2.036h.328zm-1.562-.756h.89l-.375-.829a1.3 1.3 0 0 1-.071-.191l-.036.106a1 1 0 0 1-.035.086l-.372.828zM35.8 26.522a.13.13 0 0 1 .047.036l1.38 1.535v-1.58h.282v2.036h-.158a.2.2 0 0 1-.065-.012.2.2 0 0 1-.05-.038l-1.379-1.534a.4.4 0 0 1 0 .07v1.514h-.282v-2.036h.167a.2.2 0 0 1 .057.009zM39.834 27.739v.809h-.316v-.809l-.872-1.226h.282a.1.1 0 0 1 .068.018.2.2 0 0 1 .043.046l.546.791q.033.05.057.094c.024.044.028.058.039.086l.041-.088a1 1 0 0 1 .054-.093l.538-.797a.2.2 0 0 1 .041-.043.1.1 0 0 1 .068-.02h.285zM27.008 23.095q.206.022.416.038c2.128-.813 3.929-2.145 5.176-3.828s1.887-3.643 1.838-5.634l-2.346-2.004c.477 2.12.254 4.313-.644 6.331s-2.436 3.783-4.441 5.098z"/>
      <path d="m26.17 23.002.063.011c2.143-1.31 3.776-3.138 4.69-5.25s1.064-4.408.433-6.594l-3.341-2.854c1.351 2.346 1.895 4.972 1.568 7.572s-1.511 5.067-3.414 7.115zM37.5 16.024c-.568 2.188-1.946 4.162-3.931 5.628q-.872.647-1.868 1.145c1.616-.406 3.102-1.123 4.342-2.097s2.202-2.178 2.812-3.52z"/>
      <path d="m36.968 15.702-1.929-1.648c-.037 1.879-.662 3.716-1.811 5.318s-2.779 2.914-4.721 3.796h.009q.65 0 1.295-.066c1.815-.633 3.418-1.64 4.667-2.931s2.104-2.826 2.489-4.469zM26.449 7.112l-2.301-1.969c-2.057.679-3.827 1.873-5.077 3.426s-1.922 3.392-1.928 5.276c.008 2.082.828 4.103 2.331 5.742s3.603 2.803 5.967 3.308c2.111-2.197 3.346-4.912 3.528-7.75s-.701-5.652-2.52-8.032zM42.286 15.399c-.008-2.47-1.161-4.838-3.205-6.585s-4.815-2.731-7.707-2.739a12.5 12.5 0 0 0-3.907.621l14.09 12.039a8.06 8.06 0 0 0 .729-3.337z"/>
    </symbol>
    <symbol id="icon-client-4" viewBox="0 0 59 32">
      <path d="M13.759 12.296h-.002c-1.363 0-2.468.996-2.468 2.225v.002c0 1.229 1.105 2.225 2.468 2.225h.002c1.363 0 2.468-.996 2.468-2.225v-.002c0-1.229-1.105-2.225-2.468-2.225M31.978 11.585c-.004-1.707-.758-3.343-2.096-4.551s-3.153-1.887-5.047-1.891c-1.894.003-3.709.683-5.049 1.89s-2.094 2.844-2.098 4.552v9.414s14.288-1.435 14.289-9.412v-.001zM6.286 24.088c.003 1.188.528 2.326 1.46 3.166s2.194 1.314 3.511 1.317c1.317-.003 2.579-.477 3.511-1.317s1.456-1.978 1.46-3.165v-6.55s-9.942.999-9.942 6.549m4.971 1.174c-.258 0-.509-.069-.723-.198s-.381-.312-.479-.527-.124-.45-.074-.678.174-.437.356-.601.414-.276.666-.321.514-.022.752.067.441.239.584.432a1.09 1.09 0 0 1 .121 1.103 1.2 1.2 0 0 1-.282.382c-.121.109-.265.196-.423.256s-.328.09-.499.09v-.004zM20.348 23.151v2.438h-.502v-2.438zm.971 1.042v.392h-1.108v-.392zm.117-1.042v.393h-1.225v-.393zm2.294 1.162v.116q0 .278-.075.499a.86.86 0 0 1-.213.377.9.9 0 0 1-.328.236 1 1 0 0 1-.42.082q-.23 0-.42-.082a.95.95 0 0 1-.328-.236 1.1 1.1 0 0 1-.216-.377 1.6 1.6 0 0 1-.075-.499v-.116q0-.28.075-.499.075-.22.213-.377a.9.9 0 0 1 .328-.238q.19-.082.42-.082.231 0 .42.082a.9.9 0 0 1 .328.238q.14.155.214.377.077.219.077.499m-.508.116v-.119q0-.194-.035-.342c-.035-.148-.058-.181-.104-.248a.46.46 0 0 0-.393-.203.458.458 0 0 0-.392.203q-.067.1-.102.248c-.035.148-.035.212-.035.342v.119q0 .192.035.341a.7.7 0 0 0 .104.249q.07.1.167.152a.4.4 0 0 0 .226.052q.127 0 .226-.052c.099-.052.121-.085.166-.152a.8.8 0 0 0 .102-.249q.035-.149.035-.341m2.138.522a.3.3 0 0 0-.02-.117.2.2 0 0 0-.07-.097q-.052-.045-.146-.089c-.094-.044-.143-.059-.243-.09a3 3 0 0 1-.315-.121 1.3 1.3 0 0 1-.261-.156.7.7 0 0 1-.177-.209.6.6 0 0 1-.064-.276q0-.153.067-.276a.6.6 0 0 1 .188-.214.9.9 0 0 1 .285-.139 1.3 1.3 0 0 1 .363-.049q.27 0 .47.097c.2.097.238.154.311.266a.7.7 0 0 1 .112.387h-.499a.4.4 0 0 0-.045-.188.3.3 0 0 0-.134-.129.5.5 0 0 0-.224-.047.5.5 0 0 0-.218.04.3.3 0 0 0-.131.105.26.26 0 0 0-.044.147q0 .062.03.112.031.05.094.094c.063.044.092.056.152.082q.09.039.209.075.199.06.35.136.153.076.254.169a.5.5 0 0 1 .154.213.7.7 0 0 1 .052.27q0 .159-.062.285c-.062.126-.101.155-.179.213q-.117.087-.28.132c-.163.045-.229.045-.363.045a1.4 1.4 0 0 1-.357-.047 1.1 1.1 0 0 1-.32-.146q-.142-.097-.228-.248c-.086-.151-.085-.219-.085-.357h.504q0 .114.035.192a.25.25 0 0 0 .099.127.4.4 0 0 0 .154.07q.09.022.198.022a.5.5 0 0 0 .214-.037.27.27 0 0 0 .126-.102.27.27 0 0 0 .042-.147zm1.934-1.8v2.438h-.501v-2.438zm.75 0v.393h-1.989v-.393zm1.922 2.046v.392h-1.297v-.392zm-1.134-2.046v2.438h-.502v-2.438zm.965.993v.382h-1.128v-.382zm.167-.993v.393h-1.296v-.393zm.295 0h.909q.279 0 .48.084.203.084.311.248c.108.164.109.244.109.403a.8.8 0 0 1-.067.337.6.6 0 0 1-.186.233 1 1 0 0 1-.28.147l-.159.084h-.79l-.003-.392h.588q.132 0 .219-.047c.087-.047.102-.075.131-.131a.4.4 0 0 0 .045-.194q0-.117-.044-.203c-.044-.086-.073-.1-.132-.131s-.133-.045-.223-.045h-.407v2.044h-.502V23.15zm1.362 2.438-.556-1.086.531-.003.562 1.066v.023zm2.637-.869h-.621v-.392h.621a.5.5 0 0 0 .234-.047q.09-.048.132-.134c.042-.086.042-.121.042-.192q0-.109-.042-.203c-.042-.094-.072-.113-.132-.151s-.138-.057-.234-.057h-.447v2.044h-.502V23.15h.949q.286 0 .49.104a.74.74 0 0 1 .424.696q0 .236-.109.408a.57.57 0 0 1-.315.266q-.205.093-.49.094zm2.896.477v.392h-1.297v-.392zm-1.133-2.046v2.438h-.502v-2.438zm.964.993v.382h-1.128v-.382zm.168-.993v.393h-1.296v-.393zm1.418 0v2.438h-.501v-2.438zm.75 0v.393h-1.989v-.393zm1.921 2.046v.392h-1.297v-.392zm-1.133-2.046v2.438h-.502v-2.438zm.964.993v.382h-1.128v-.382zm.168-.993v.393h-1.296v-.393zm.294 0h.909q.28 0 .48.084.203.084.311.248c.108.164.109.244.109.403a.8.8 0 0 1-.067.337.6.6 0 0 1-.186.233 1 1 0 0 1-.28.147l-.159.084h-.79l-.003-.392h.588q.132 0 .219-.047c.087-.047.102-.075.131-.131a.4.4 0 0 0 .045-.194q0-.117-.044-.203c-.044-.086-.073-.1-.132-.131a.5.5 0 0 0-.223-.045h-.407v2.044h-.502V23.15zm1.363 2.438-.556-1.086.531-.003.563 1.066v.023h-.537zm2.103-.638a.3.3 0 0 0-.02-.117.2.2 0 0 0-.07-.097q-.052-.045-.146-.089c-.094-.044-.143-.059-.243-.09a3 3 0 0 1-.315-.121 1.3 1.3 0 0 1-.261-.156.58.58 0 0 1-.242-.485q0-.153.067-.276a.6.6 0 0 1 .188-.214.9.9 0 0 1 .285-.139q.166-.049.363-.049.27 0 .47.097c.2.097.238.154.311.266a.7.7 0 0 1 .112.387h-.499a.4.4 0 0 0-.045-.188.3.3 0 0 0-.134-.129.5.5 0 0 0-.224-.047.5.5 0 0 0-.218.04.3.3 0 0 0-.131.105.26.26 0 0 0-.044.147q0 .062.03.112.031.05.094.094c.063.044.092.056.152.082q.09.039.209.075.199.06.35.136.152.076.254.169c.102.093.119.133.154.213a.7.7 0 0 1 .052.27q0 .159-.062.285c-.062.126-.101.155-.179.213q-.117.087-.28.132c-.163.045-.229.045-.363.045a1.4 1.4 0 0 1-.357-.047 1.1 1.1 0 0 1-.32-.146q-.142-.097-.228-.248c-.086-.151-.085-.219-.085-.357h.504q0 .114.035.192a.25.25 0 0 0 .099.127.4.4 0 0 0 .154.07q.09.022.198.022a.5.5 0 0 0 .214-.037.27.27 0 0 0 .126-.102.27.27 0 0 0 .042-.147z"/>
    </symbol>
    <symbol id="icon-client-5" viewBox="0 0 59 32">
      <path d="M15.31 25.356c.14.156.215.352.211.553.007.131-.019.262-.075.383s-.143.229-.252.316c-.273.185-.61.276-.951.255h-1.671v-3.504h1.637c.323-.019.644.063.907.233q.16.122.245.294c.085.172.08.238.073.361a.76.76 0 0 1-.19.536.9.9 0 0 1-.498.274.98.98 0 0 1 .565.3zm-1.961-.529h.7a.72.72 0 0 0 .445-.116q.08-.066.12-.155a.3.3 0 0 0 .031-.187.4.4 0 0 0-.148-.342.73.73 0 0 0-.458-.118h-.688v.919zm1.213 1.344q.085-.067.129-.161c.044-.094.041-.129.036-.195q.006-.103-.038-.198c-.044-.095-.074-.118-.131-.162a.8.8 0 0 0-.475-.127h-.734v.964h.744a.8.8 0 0 0 .47-.122zM18.656 26.862l-.911-1.369h-.342v1.369h-.783v-3.504h1.483c.374-.023.744.083 1.033.298.207.19.332.441.353.707s-.066.529-.242.743a1.25 1.25 0 0 1-.707.356l.97 1.4h-.852zm-1.253-1.847h.641q.667 0 .667-.531.007-.11-.036-.212a.4.4 0 0 0-.128-.181.75.75 0 0 0-.504-.142h-.648l.008 1.067zM22.939 26.157h-1.561l-.276.705h-.821l1.434-3.465h.888l1.428 3.465h-.822zm-.209-.53-.57-1.479-.57 1.479h1.141zM28.299 26.863h-.778l-1.744-2.383v2.383h-.776v-3.504h.776l1.744 2.397v-2.397h.778zM32.737 26.024c-.161.265-.406.48-.704.618a2.5 2.5 0 0 1-1.093.221h-1.384v-3.504h1.384c.378-.009.754.065 1.093.216.298.135.543.348.704.611.16.285.243.6.243.919s-.083.634-.243.919m-.89-.084c.222-.233.344-.529.344-.836s-.122-.603-.344-.836a1.45 1.45 0 0 0-.974-.298h-.54v2.268h.54c.355.02.705-.087.974-.298M23.425 3.867s10.038 3.412 9.825 8.349v8.351s-10.031-3.413-9.821-8.351zM42.194 18.611c1.896-1.175 4.089-1.902 6.378-2.116v-2.614c-2.638.915-4.875 2.575-6.378 4.73"/>
      <path d="M41.055 19.399c1.552-2.813 4.242-4.983 7.517-6.065V5.802s-14.296 4.86-13.993 11.891v11.889s.637-.217 1.639-.625c0-.38 0-.764.046-1.149.296-3.264 2.02-6.289 4.792-8.409z"/>
      <path d="M39.695 23.815c.075-.825.243-1.64.5-2.434-1.726 1.831-2.772 4.103-2.989 6.497q-.03.337-.038.685a44 44 0 0 0 2.75-1.304 11.1 11.1 0 0 1-.222-3.443zM40.264 23.858a10.6 10.6 0 0 0 .177 3.117c3.906-2.104 8.294-5.355 8.125-9.284v-.342c-2.791.281-5.401 1.379-7.431 3.126a10.8 10.8 0 0 0-.871 3.383"/>
    </symbol>
    <symbol id="icon-client-6" viewBox="0 0 59 32">
      <path d="M30.588 15.682a1.69 1.69 0 0 1-.346-1.138v-1.65q0-.759.344-1.153c.344-.394.624-.394 1.183-.393q.787 0 1.119.336c.24.286.358.635.331.987v.388h-.94v-.393a2 2 0 0 0-.027-.384.37.37 0 0 0-.134-.228.54.54 0 0 0-.34-.089.58.58 0 0 0-.358.094.44.44 0 0 0-.156.252 2 2 0 0 0-.037.408v2.003c-.015.193.027.387.121.562q.072.091.188.136c.116.045.16.041.242.032.12.009.24-.024.333-.091a.4.4 0 0 0 .14-.243 2 2 0 0 0 .029-.401v-.406h.94v.371c.026.367-.088.732-.325 1.038-.216.245-.584.368-1.125.368s-.949-.131-1.181-.403zM34.501 15.699q-.356-.384-.356-1.127v-1.736q0-.735.356-1.113c.356-.378.634-.377 1.191-.376q.829 0 1.185.376.357.378.358 1.113v1.736q0 .736-.362 1.125c-.362.389-.634.388-1.181.388s-.951-.131-1.191-.386m1.628-.417a.97.97 0 0 0 .113-.514v-2.125a.94.94 0 0 0-.111-.504q-.073-.093-.192-.138a.4.4 0 0 0-.248-.03c-.084-.01-.17 0-.248.03s-.145.077-.193.138a.9.9 0 0 0-.113.504v2.136a.95.95 0 0 0 .113.514q.083.082.198.127c.115.045.158.045.242.045s.166-.015.242-.045a.6.6 0 0 0 .198-.127v-.01zM38.364 11.398h1.012l.761 3.203.778-3.203h.984l.099 4.623h-.728l-.078-3.213-.751 3.213h-.584l-.778-3.225-.072 3.225h-.735l.091-4.623zM43.133 11.398h1.576q1.362 0 1.362 1.313 0 1.257-1.434 1.256H44.1v2.055h-.973l.006-4.623zm1.346 1.976c.096.011.194.003.286-.022s.177-.067.249-.124a.74.74 0 0 0 .14-.522 1.5 1.5 0 0 0-.047-.42q-.021-.07-.072-.127a.3.3 0 0 0-.123-.093 1 1 0 0 0-.434-.074h-.377v1.382zM47.474 11.398h1.045l1.072 4.623h-.907l-.212-1.066h-.932l-.218 1.066h-.92zm.893 3.021-.364-1.941-.364 1.941zM50.456 11.398h.681l1.304 2.637v-2.637h.807v4.623H52.6l-1.311-2.753v2.753h-.835zM55.139 14.258l-1.084-2.854h.912l.661 1.833.621-1.833h.893l-1.07 2.854v1.763h-.934zM32.09 18.042v.242h-.794v1.879h-.333v-1.879h-.798v-.242zM34.578 20.163h-.257a.12.12 0 0 1-.072-.02.1.1 0 0 1-.043-.049l-.23-.504h-1.101l-.23.504a.14.14 0 0 1-.035.057.12.12 0 0 1-.072.02h-.257l.973-2.12h.339zm-1.61-.788h.918l-.389-.863a1.5 1.5 0 0 1-.072-.2l-.037.113-.035.089zM36.256 19.954q.091.005.183 0 .08-.007.156-.025.072-.015.14-.039.064-.024.13-.052v-.477h-.389q-.015 0-.028-.004a.1.1 0 0 1-.024-.013q-.009-.008-.015-.017-.007-.012-.005-.021v-.163h.755v.813a1.5 1.5 0 0 1-.654.217 3 3 0 0 1-.284.013 1.5 1.5 0 0 1-.49-.079 1.2 1.2 0 0 1-.389-.222 1 1 0 0 1-.251-.336 1.1 1.1 0 0 1-.09-.44 1.1 1.1 0 0 1 .088-.443 1 1 0 0 1 .251-.336 1.2 1.2 0 0 1 .389-.22q.252-.081.521-.079.137 0 .27.018a1.3 1.3 0 0 1 .427.138q.09.05.169.111l-.093.131q-.01.018-.032.029c-.022.011-.029.011-.044.011a.1.1 0 0 1-.06-.017 1 1 0 0 1-.095-.05 1 1 0 0 0-.13-.057 1.2 1.2 0 0 0-.426-.065 1.2 1.2 0 0 0-.376.059.8.8 0 0 0-.286.168.7.7 0 0 0-.181.264 1 1 0 0 0 0 .707q.065.151.195.267.122.11.284.168c.124.037.255.051.385.042zM39.357 19.921h1.062v.242h-1.387v-2.12h.333l-.008 1.879zM41.524 20.162h-.333v-2.12h.333zM42.761 18.052q.03.015.051.039l1.422 1.598a1 1 0 0 1 0-.076v-1.58h.29v2.129h-.167a.15.15 0 0 1-.072-.012.2.2 0 0 1-.053-.04l-1.42-1.597v1.649h-.278v-2.12h.173a.14.14 0 0 1 .054.01M46.974 18.042v.233h-1.179v.7h.955v.225h-.955v.724h1.179v.233h-1.521v-2.115zM12.112 4.948l14.772 3.619V21.25l-14.772-3.618zm-.948-1.081v14.382l16.666 4.084V7.953z"/>
      <path d="M20.096 29.01 3.429 24.922V10.541l16.667 4.086v14.382z"/>
      <path d="m11.44 4.785 14.58 3.574-6.2 5.352-14.582-3.576zm-.276-.918-7.735 6.675 16.667 4.086 7.733-6.675zM21.034 28.201l6.796-5.866-6.796-1.667V28.2z"/>
    </symbol>
    <symbol id="icon-close-modal" viewBox="0 0 32 32">
      <path d="M32 3.223l-3.223-3.223-12.777 12.777-12.777-12.777-3.223 3.223 12.777 12.777-12.777 12.777 3.223 3.223 12.777-12.777 12.777 12.777 3.223-3.223-12.777-12.777 12.777-12.777z"></path>
    </symbol>
  </defs>
</svg>